HIERARCHY
ROOT Hips
{
	OFFSET 0.000000 0.000000 0.000000
	CHANNELS 6 Xposition Yposition Zposition Zrotation Yrotation Xrotation 
	JOINT LHipJoint
	{
		OFFSET 0.000000 0.000000 0.000000
		CHANNELS 3 Zrotation Yrotation Xrotation
		JOINT LeftUpLeg
		{
			OFFSET 8.178360 -10.767780 5.035740
			CHANNELS 3 Zrotation Yrotation Xrotation
			JOINT LeftLeg
			{
				OFFSET 14.688660 -40.356780 0.000000
				CHANNELS 3 Zrotation Yrotation Xrotation
				JOINT LeftFoot
				{
					OFFSET 15.373200 -42.237540 0.000000
					CHANNELS 3 Zrotation Yrotation Xrotation
					JOINT LeftToeBase
					{
						OFFSET 0.945840 -2.598660 13.935300
						CHANNELS 3 Zrotation Yrotation Xrotation
						End Site
						{
							OFFSET 0.000000 0.000000 0.000000
						}
					}
				}
			}
		}
	}
	JOINT RHipJoint
	{
		OFFSET 0.000000 0.000000 0.000000
		CHANNELS 3 Zrotation Yrotation Xrotation
		JOINT RightUpLeg
		{
			OFFSET -7.833120 -10.767780 5.035740
			CHANNELS 3 Zrotation Yrotation Xrotation
			JOINT RightLeg
			{
				OFFSET -15.255180 -41.913300 0.000000
				CHANNELS 3 Zrotation Yrotation Xrotation
				JOINT RightFoot
				{
					OFFSET -15.409560 -42.337380 0.000000
					CHANNELS 3 Zrotation Yrotation Xrotation
					JOINT RightToeBase
					{
						OFFSET -0.988380 -2.715540 14.178900
						CHANNELS 3 Zrotation Yrotation Xrotation
						End Site
						{
							OFFSET 0.000000 0.000000 0.000000
						}
					}
				}
			}
		}
	}
	JOINT LowerBack
	{
		OFFSET 0.000000 0.000000 0.000000
		CHANNELS 3 Zrotation Yrotation Xrotation
		JOINT Spine
		{
			OFFSET 0.169620 12.213540 -1.160280
			CHANNELS 3 Zrotation Yrotation Xrotation
			JOINT Spine1
			{
				OFFSET 0.340320 12.293100 -0.256500
				CHANNELS 3 Zrotation Yrotation Xrotation
				JOINT Neck
				{
					OFFSET 0.000000 0.000000 0.000000
					CHANNELS 3 Zrotation Yrotation Xrotation
					JOINT Neck1
					{
						OFFSET -0.325020 10.477440 1.032120
						CHANNELS 3 Zrotation Yrotation Xrotation
						JOINT Head
						{
							OFFSET 0.624420 10.568160 -0.743820
							CHANNELS 3 Zrotation Yrotation Xrotation
							End Site
							{
								OFFSET 0.000000 0.000000 0.000000
							}
						}
					}
				}
				JOINT LeftShoulder
				{
					OFFSET 0.000000 0.000000 0.000000
					CHANNELS 3 Zrotation Yrotation Xrotation
					JOINT LeftArm
					{
						OFFSET 20.174460 7.205340 -1.867260
						CHANNELS 3 Zrotation Yrotation Xrotation
						JOINT LeftForeArm
						{
							OFFSET 29.898000 -0.000000 -0.000000
							CHANNELS 3 Zrotation Yrotation Xrotation
							JOINT LeftHand
							{
								OFFSET 20.901360 -0.000000 -0.000000
								CHANNELS 3 Zrotation Yrotation Xrotation
								JOINT LeftFingerBase
								{
									OFFSET 0.000000 0.000000 0.000000
									CHANNELS 3 Zrotation Yrotation Xrotation
									JOINT LeftHandIndex1
									{
										OFFSET 4.291560 -0.000000 -0.000000
										CHANNELS 3 Zrotation Yrotation Xrotation
										End Site
										{
											OFFSET 0.000000 0.000000 0.000000
										}
									}
								}
								JOINT LThumb
								{
									OFFSET 0.000000 0.000000 0.000000
									CHANNELS 3 Zrotation Yrotation Xrotation
									End Site
									{
										OFFSET 0.000000 0.000000 0.000000
									}
								}
							}
						}
					}
				}
				JOINT RightShoulder
				{
					OFFSET 0.000000 0.000000 0.000000
					CHANNELS 3 Zrotation Yrotation Xrotation
					JOINT RightArm
					{
						OFFSET -18.819600 8.244300 -2.427900
						CHANNELS 3 Zrotation Yrotation Xrotation
						JOINT RightForeArm
						{
							OFFSET -31.451400 -0.000000 -0.000000
							CHANNELS 3 Zrotation Yrotation Xrotation
							JOINT RightHand
							{
								OFFSET -20.665020 -0.000000 -0.000000
								CHANNELS 3 Zrotation Yrotation Xrotation
								JOINT RightFingerBase
								{
									OFFSET 0.000000 0.000000 0.000000
									CHANNELS 3 Zrotation Yrotation Xrotation
									JOINT RightHandIndex1
									{
										OFFSET -3.735180 -0.000000 -0.000000
										CHANNELS 3 Zrotation Yrotation Xrotation
										End Site
										{
											OFFSET 0.000000 0.000000 0.000000
										}
									}
								}
								JOINT RThumb
								{
									OFFSET 0.000000 0.000000 0.000000
									CHANNELS 3 Zrotation Yrotation Xrotation
									End Site
									{
										OFFSET 0.000000 0.000000 0.000000
									}
								}
							}
						}
					}
				}
			}
		}
	}
}
MOTION
Frames:	6
Frame Time:	0.0333333
-66.806028 107.332356 -75.392832 0.796193 -4.985977 0.151352 -3.186888 0.926227 1.859852 -16.634413 -4.698728 -16.138582 -1.329704 4.049234 12.428153 0.549920 -1.888106 13.023796 0.086100 -1.892400 -5.208400 0.844747 -1.318350 1.304554 19.850729 0.672613 1.535871 -5.919668 -13.729454 44.232566 0.886052 -10.554228 14.724035 -0.167400 -2.635500 7.265500 1.035994 2.964842 7.584935 0.828455 4.068180 1.843763 -2.172374 2.131457 -2.763405 -11.209461 -3.763082 -10.621009 5.193465 -4.241183 29.324746 4.212000 -3.029400 16.967500 -6.897797 -0.638192 -1.462131 -84.560251 6.667619 8.700918 10.985653 -15.362177 -1.590504 -1.702292 -1.914583 18.358516 16.758716 21.986907 7.522100 -7.125000 0.000000 0.000000 -12.396500 54.931200 -3.058400 5.346417 1.110194 -0.957909 83.395183 4.442262 13.450748 -17.101117 25.162030 -4.063110 0.334612 -0.153832 6.461487 -14.467212 8.713944 -2.322400 7.125000 0.000000 0.000000 8.690300 -20.907300 5.074600 
-66.468252 107.624454 -72.010878 2.108501 -5.128167 -0.374106 -3.206502 1.096216 2.205477 -18.823864 -3.057748 -13.498385 -1.398554 3.443845 11.030651 0.585599 -2.960837 12.689092 0.021900 -0.955100 -2.625400 0.747979 -1.300229 1.132768 17.739217 0.854664 -3.390787 -8.272580 -15.752659 52.997259 0.840189 -10.974984 15.092188 -0.398300 -4.051900 11.222800 -0.586313 2.705204 7.885467 0.662190 3.576630 1.976912 -1.466015 1.871233 -2.814599 -11.275481 -3.549073 -10.731743 5.196860 -3.896706 29.132603 4.254400 -2.893300 16.840000 -6.828143 -0.664434 -1.494580 -84.310424 7.041805 13.507346 11.846384 -16.711606 -1.936939 -1.556850 -2.040773 15.220120 16.714269 21.976379 7.488200 -7.125000 0.000000 0.000000 -12.497000 54.934200 -3.084700 5.330872 1.074571 -0.974082 83.566714 3.284090 14.395052 -16.917294 24.911740 -3.987356 0.302056 -0.132386 7.028431 -13.462707 8.123263 -2.005500 7.125000 0.000000 0.000000 9.458500 -21.573500 5.390400 
-66.165336 107.754276 -68.705256 3.183059 -5.076546 -1.122141 -3.189518 1.281937 2.496493 -20.643612 -2.088339 -10.570127 -1.419951 2.982394 9.999096 0.529142 -3.624729 11.228892 0.007000 -0.538900 -1.481000 0.656007 -1.298372 0.986485 15.924664 0.515041 -7.912484 -10.205274 -17.071039 59.572450 1.430438 -13.026136 12.212736 -0.566700 -4.821300 13.399700 -1.887974 2.342050 8.316899 0.599078 2.977980 2.169828 -0.762154 1.545187 -2.756389 -11.420718 -3.316939 -11.037287 5.105055 -3.473883 29.319316 4.298000 -2.767200 16.969200 -6.815627 -0.770506 -1.468927 -83.944113 6.031792 17.231750 12.207281 -17.237902 -2.097479 -1.576799 -2.091532 13.302150 17.715772 22.186648 8.044400 -7.125000 0.000000 0.000000 -11.485200 55.372500 -2.952800 5.343466 1.077718 -0.986196 83.572989 2.385934 14.563301 -16.610567 24.509947 -3.850003 0.290138 -0.187536 8.463939 -13.523916 9.297243 -2.311600 7.125000 0.000000 0.000000 9.370200 -20.331400 5.605300 
-65.963994 107.799348 -65.521044 3.609103 -4.656345 -1.542623 -3.145406 1.433968 2.736079 -21.667111 -1.025909 -8.203527 -1.427459 2.566801 9.059201 0.521364 -4.515238 9.959200 0.003300 -0.368200 -1.011600 0.577200 -1.276690 0.868858 14.905744 0.141150 -12.482732 -11.425632 -17.808578 63.682933 1.596901 -12.982458 10.053149 -0.805500 -5.727800 15.996700 -2.472385 1.984171 8.436601 0.604014 2.457173 2.219407 -0.313896 1.254175 -2.747664 -11.411800 -3.209029 -10.671230 4.983862 -3.362376 29.359479 4.255000 -2.747600 16.850400 -6.786887 -0.894275 -1.422100 -83.205803 4.675390 20.974406 12.525595 -17.726392 -2.245970 -1.617341 -2.339894 11.084221 18.598413 24.712867 9.343000 -7.125000 0.000000 0.000000 -11.842700 58.298500 -3.887800 5.336020 1.097203 -1.005143 83.950631 1.086713 14.026546 -16.762710 24.704224 -3.916487 0.302618 -0.150510 8.714391 -13.748767 8.241524 -2.081100 7.125000 0.000000 0.000000 9.243200 -21.432800 5.294300 
-65.843190 107.675538 -62.455830 3.972818 -4.000203 -1.732370 -3.097861 1.466250 2.829353 -22.392229 -0.549757 -7.194233 -1.250335 3.164886 10.811053 0.539771 -5.654115 7.275364 0.001800 0.277100 0.761400 0.527007 -1.216749 0.793204 14.136003 -0.015199 -16.758017 -11.832122 -18.105098 65.225159 1.534157 -11.543918 7.507537 -0.856500 -5.901900 16.500200 -3.023769 1.490066 8.245259 0.636858 1.771959 2.291860 0.152201 0.876540 -2.480515 -11.587960 -3.126502 -10.402436 5.048393 -3.255789 29.433299 4.339600 -2.736300 16.782400 -6.799312 -1.026933 -1.341602 -82.859724 2.449973 21.060904 12.533055 -17.662609 -2.246095 -1.711472 -2.161279 12.367672 19.339547 23.544404 9.328500 -7.125000 0.000000 0.000000 -10.297400 57.167400 -3.091600 5.321866 1.151380 -1.030341 84.358928 -0.630185 13.591334 -17.447976 25.613602 -4.235005 0.326823 -0.094280 6.955636 -14.058053 7.335864 -1.888300 7.125000 0.000000 0.000000 9.048200 -22.391500 4.979900 
-65.769264 107.347380 -59.443506 4.401013 -3.351134 -1.794706 -3.054159 1.449351 2.885024 -23.089869 0.182056 -6.809335 -1.007442 3.908120 12.967284 0.640105 -7.195724 5.026983 0.002500 0.324700 0.892200 0.499507 -1.139819 0.744918 13.391091 0.258693 -20.616313 -11.479762 -18.069268 64.458592 1.224685 -8.745156 4.007640 -0.761500 -5.572900 15.550200 -3.614474 0.971463 8.276118 0.643452 1.028682 2.185786 0.609334 0.485765 -2.597755 -11.637873 -3.031586 -10.457337 5.020130 -3.120725 29.678857 4.364600 -2.711300 16.928000 -6.771030 -1.150233 -1.301642 -82.508455 0.704494 21.293777 12.872684 -18.121357 -2.385269 -1.769409 -2.012378 12.740029 20.340063 22.370930 9.399800 -7.125000 0.000000 0.000000 -8.562700 56.068900 -2.337100 5.303658 1.202151 -1.062730 84.701960 -2.204278 13.038145 -17.536693 25.732152 -4.274685 0.341282 -0.113835 5.645259 -14.384482 8.204817 -2.167500 7.125000 0.000000 0.000000 8.766600 -21.466900 5.007900 
